<svg width="1400" height="595" viewBox="0 0 1400 595" fill="none" xmlns="http://www.w3.org/2000/svg">
<rect width="1400" height="595" fill="#D60690"/>
<mask id="mask0" mask-type="alpha" maskUnits="userSpaceOnUse" x="0" y="0" width="1400" height="595">
<rect width="1400" height="595" fill="white"/>
</mask>
<g mask="url(#mask0)">
<g filter="url(#filter0_d)">
<path d="M989.76 415.719C1051.9 337.548 1189.77 414.177 1156.87 490.916C1123.97 567.655 1180.61 597.975 1160.65 636.669C1140.69 675.364 1028.12 640.328 999.112 601.608C970.1 562.887 927.622 493.89 989.76 415.719Z" fill="#D60690"/>
<path d="M989.76 415.719C1051.9 337.548 1189.77 414.177 1156.87 490.916C1123.97 567.655 1180.61 597.975 1160.65 636.669C1140.69 675.364 1028.12 640.328 999.112 601.608C970.1 562.887 927.622 493.89 989.76 415.719Z" fill="url(#paint0_linear)" fill-opacity="0.1"/>
</g>
<g filter="url(#filter1_d)">
<path d="M931.736 -57.6399C1021.1 -252.633 1345.46 -166.439 1315.97 10.1444C1286.48 186.727 1419.13 219.733 1397.28 310.552C1375.43 401.372 1124.48 388.112 1044.84 323.094C965.19 258.077 842.373 137.353 931.736 -57.6399Z" fill="#D60690"/>
<path d="M931.736 -57.6399C1021.1 -252.633 1345.46 -166.439 1315.97 10.1444C1286.48 186.727 1419.13 219.733 1397.28 310.552C1375.43 401.372 1124.48 388.112 1044.84 323.094C965.19 258.077 842.373 137.353 931.736 -57.6399Z" fill="url(#paint1_linear)" fill-opacity="0.1"/>
</g>
<g filter="url(#filter2_d)">
<path d="M1342 235C1381.47 362 1254.03 345.274 1080 313C905.975 280.725 965.116 462 878.001 445C790.887 427.999 790.011 332.865 702.001 272C613.991 211.134 558.001 263.091 469.001 184C380.001 104.91 616.705 119.801 679.001 73.9995C753.991 18.8648 754.616 -77 878.001 -77C1029.71 -77 1320.4 -116.289 1391 -38.0005C1425.52 0.275879 1302.53 108 1342 235Z" fill="#D60690"/>
<path d="M1342 235C1381.47 362 1254.03 345.274 1080 313C905.975 280.725 965.116 462 878.001 445C790.887 427.999 790.011 332.865 702.001 272C613.991 211.134 558.001 263.091 469.001 184C380.001 104.91 616.705 119.801 679.001 73.9995C753.991 18.8648 754.616 -77 878.001 -77C1029.71 -77 1320.4 -116.289 1391 -38.0005C1425.52 0.275879 1302.53 108 1342 235Z" fill="url(#paint2_linear)" fill-opacity="0.1"/>
</g>
<g filter="url(#filter3_d)">
<path d="M-31.713 212.839C-149.465 102.014 -81.5698 74.1852 18.6357 45.4361C118.841 16.6869 -50.4371 -140.528 0.394555 -154.092C51.2262 -167.655 127.138 -74.6805 213.183 -45.5459C299.227 -16.4113 281.968 -86.7851 382.907 -40.1244C483.847 6.53632 370.582 74.0819 380.252 140.609C391.892 220.693 467.741 314.904 414.864 357.724C349.848 410.374 256.47 549.777 164.051 497.518C118.865 471.969 86.0387 323.665 -31.713 212.839Z" fill="#D60690"/>
<path d="M-31.713 212.839C-149.465 102.014 -81.5698 74.1852 18.6357 45.4361C118.841 16.6869 -50.4371 -140.528 0.394555 -154.092C51.2262 -167.655 127.138 -74.6805 213.183 -45.5459C299.227 -16.4113 281.968 -86.7851 382.907 -40.1244C483.847 6.53632 370.582 74.0819 380.252 140.609C391.892 220.693 467.741 314.904 414.864 357.724C349.848 410.374 256.47 549.777 164.051 497.518C118.865 471.969 86.0387 323.665 -31.713 212.839Z" fill="url(#paint3_linear)" fill-opacity="0.1"/>
</g>
<g filter="url(#filter4_d)">
<path d="M743.261 431.648C758.261 490.248 699.42 628.148 626.761 530.148C554.102 432.148 478.261 488.248 467.261 431.648C456.261 375.048 518.602 347.148 601.261 325.148C683.92 303.148 728.261 373.048 743.261 431.648Z" fill="#D60690"/>
<path d="M743.261 431.648C758.261 490.248 699.42 628.148 626.761 530.148C554.102 432.148 478.261 488.248 467.261 431.648C456.261 375.048 518.602 347.148 601.261 325.148C683.92 303.148 728.261 373.048 743.261 431.648Z" fill="url(#paint4_linear)" fill-opacity="0.1"/>
</g>
<g filter="url(#filter5_d)">
<path d="M-2.89812 -39.9274C50.5057 -157.454 111.706 -153.248 177.128 -68.5544C242.549 16.1396 338.555 -68.0244 350.543 -32.2029C362.531 3.61869 326.015 23.6835 333.702 103.108C341.39 182.533 455.581 253.54 381.483 340.974C307.385 428.407 258.578 334.069 202.456 350.87C134.898 371.093 102.134 412.758 42.7021 371.508C-30.3737 320.788 -192.792 255.885 -182.162 167.965C-176.964 124.979 -56.3019 77.5992 -2.89812 -39.9274Z" fill="#D60690"/>
<path d="M-2.89812 -39.9274C50.5057 -157.454 111.706 -153.248 177.128 -68.5544C242.549 16.1396 338.555 -68.0244 350.543 -32.2029C362.531 3.61869 326.015 23.6835 333.702 103.108C341.39 182.533 455.581 253.54 381.483 340.974C307.385 428.407 258.578 334.069 202.456 350.87C134.898 371.093 102.134 412.758 42.7021 371.508C-30.3737 320.788 -192.792 255.885 -182.162 167.965C-176.964 124.979 -56.3019 77.5992 -2.89812 -39.9274Z" fill="url(#paint5_linear)" fill-opacity="0.1"/>
</g>
<g filter="url(#filter6_d)">
<path d="M109.805 -135.543C182.783 -201.438 326.07 -116.282 310.612 22.066C295.155 160.414 339.251 149.159 306.269 193.992C273.288 238.825 102.305 152.968 65.0838 92.733C27.8624 32.4981 36.828 -69.6473 109.805 -135.543Z" fill="#D60690"/>
<path d="M109.805 -135.543C182.783 -201.438 326.07 -116.282 310.612 22.066C295.155 160.414 339.251 149.159 306.269 193.992C273.288 238.825 102.305 152.968 65.0838 92.733C27.8624 32.4981 36.828 -69.6473 109.805 -135.543Z" fill="url(#paint6_linear)" fill-opacity="0.1"/>
</g>
<g filter="url(#filter7_d)">
<path d="M1056 -51.0002C1346 -81.4197 1508 -126 1426 -63C1344 -0.00021969 1346 109.38 1259 132C1172 154.62 1205 235 1109 235C1013 235 856 139 834 101C812 62.9997 766 -20.5807 1056 -51.0002Z" fill="#D60690"/>
<path d="M1056 -51.0002C1346 -81.4197 1508 -126 1426 -63C1344 -0.00021969 1346 109.38 1259 132C1172 154.62 1205 235 1109 235C1013 235 856 139 834 101C812 62.9997 766 -20.5807 1056 -51.0002Z" fill="url(#paint7_linear)" fill-opacity="0.1"/>
</g>
</g>
<defs>
<filter id="filter0_d" x="882" y="331" width="396.358" height="402.006" filterUnits="userSpaceOnUse" color-interpolation-filters="sRGB">
<feFlood flood-opacity="0" result="BackgroundImageFix"/>
<feColorMatrix in="SourceAlpha" type="matrix" values="0 0 0 0 0 0 0 0 0 0 0 0 0 0 0 0 0 0 127 0"/>
<feOffset dy="10"/>
<feGaussianBlur stdDeviation="10"/>
<feColorMatrix type="matrix" values="0 0 0 0 0.0313726 0 0 0 0 0.0666667 0 0 0 0 0.27451 0 0 0 0.1 0"/>
<feBlend mode="normal" in2="BackgroundImageFix" result="effect1_dropShadow"/>
<feBlend mode="normal" in="SourceGraphic" in2="effect1_dropShadow" result="shape"/>
</filter>
<filter id="filter1_d" x="767.067" y="-267" width="811.276" height="784.269" filterUnits="userSpaceOnUse" color-interpolation-filters="sRGB">
<feFlood flood-opacity="0" result="BackgroundImageFix"/>
<feColorMatrix in="SourceAlpha" type="matrix" values="0 0 0 0 0 0 0 0 0 0 0 0 0 0 0 0 0 0 127 0"/>
<feOffset dy="10"/>
<feGaussianBlur stdDeviation="10"/>
<feColorMatrix type="matrix" values="0 0 0 0 0.0313726 0 0 0 0 0.0666667 0 0 0 0 0.27451 0 0 0 0.1 0"/>
<feBlend mode="normal" in2="BackgroundImageFix" result="effect1_dropShadow"/>
<feBlend mode="normal" in="SourceGraphic" in2="effect1_dropShadow" result="shape"/>
</filter>
<filter id="filter2_d" x="429.229" y="-96.8586" width="987.959" height="572.987" filterUnits="userSpaceOnUse" color-interpolation-filters="sRGB">
<feFlood flood-opacity="0" result="BackgroundImageFix"/>
<feColorMatrix in="SourceAlpha" type="matrix" values="0 0 0 0 0 0 0 0 0 0 0 0 0 0 0 0 0 0 127 0"/>
<feOffset dy="10"/>
<feGaussianBlur stdDeviation="10"/>
<feColorMatrix type="matrix" values="0 0 0 0 0.0313726 0 0 0 0 0.0666667 0 0 0 0 0.27451 0 0 0 0.1 0"/>
<feBlend mode="normal" in2="BackgroundImageFix" result="effect1_dropShadow"/>
<feBlend mode="normal" in="SourceGraphic" in2="effect1_dropShadow" result="shape"/>
</filter>
<filter id="filter3_d" x="-243" y="-314" width="869.443" height="891.57" filterUnits="userSpaceOnUse" color-interpolation-filters="sRGB">
<feFlood flood-opacity="0" result="BackgroundImageFix"/>
<feColorMatrix in="SourceAlpha" type="matrix" values="0 0 0 0 0 0 0 0 0 0 0 0 0 0 0 0 0 0 127 0"/>
<feOffset dy="10"/>
<feGaussianBlur stdDeviation="10"/>
<feColorMatrix type="matrix" values="0 0 0 0 0.0313726 0 0 0 0 0.0666667 0 0 0 0 0.27451 0 0 0 0.1 0"/>
<feBlend mode="normal" in2="BackgroundImageFix" result="effect1_dropShadow"/>
<feBlend mode="normal" in="SourceGraphic" in2="effect1_dropShadow" result="shape"/>
</filter>
<filter id="filter4_d" x="446" y="311" width="319.613" height="283.342" filterUnits="userSpaceOnUse" color-interpolation-filters="sRGB">
<feFlood flood-opacity="0" result="BackgroundImageFix"/>
<feColorMatrix in="SourceAlpha" type="matrix" values="0 0 0 0 0 0 0 0 0 0 0 0 0 0 0 0 0 0 127 0"/>
<feOffset dy="10"/>
<feGaussianBlur stdDeviation="10"/>
<feColorMatrix type="matrix" values="0 0 0 0 0.0313726 0 0 0 0 0.0666667 0 0 0 0 0.27451 0 0 0 0.1 0"/>
<feBlend mode="normal" in2="BackgroundImageFix" result="effect1_dropShadow"/>
<feBlend mode="normal" in="SourceGraphic" in2="effect1_dropShadow" result="shape"/>
</filter>
<filter id="filter5_d" x="-233" y="-231" width="801.333" height="789.735" filterUnits="userSpaceOnUse" color-interpolation-filters="sRGB">
<feFlood flood-opacity="0" result="BackgroundImageFix"/>
<feColorMatrix in="SourceAlpha" type="matrix" values="0 0 0 0 0 0 0 0 0 0 0 0 0 0 0 0 0 0 127 0"/>
<feOffset dy="10"/>
<feGaussianBlur stdDeviation="10"/>
<feColorMatrix type="matrix" values="0 0 0 0 0.0313726 0 0 0 0 0.0666667 0 0 0 0 0.27451 0 0 0 0.1 0"/>
<feBlend mode="normal" in2="BackgroundImageFix" result="effect1_dropShadow"/>
<feBlend mode="normal" in="SourceGraphic" in2="effect1_dropShadow" result="shape"/>
</filter>
<filter id="filter6_d" x="-47.5974" y="-213.357" width="492.64" height="518.656" filterUnits="userSpaceOnUse" color-interpolation-filters="sRGB">
<feFlood flood-opacity="0" result="BackgroundImageFix"/>
<feColorMatrix in="SourceAlpha" type="matrix" values="0 0 0 0 0 0 0 0 0 0 0 0 0 0 0 0 0 0 127 0"/>
<feOffset dy="10"/>
<feGaussianBlur stdDeviation="10"/>
<feColorMatrix type="matrix" values="0 0 0 0 0.0313726 0 0 0 0 0.0666667 0 0 0 0 0.27451 0 0 0 0.1 0"/>
<feBlend mode="normal" in2="BackgroundImageFix" result="effect1_dropShadow"/>
<feBlend mode="normal" in="SourceGraphic" in2="effect1_dropShadow" result="shape"/>
</filter>
<filter id="filter7_d" x="780.753" y="-194.581" width="750.296" height="533.402" filterUnits="userSpaceOnUse" color-interpolation-filters="sRGB">
<feFlood flood-opacity="0" result="BackgroundImageFix"/>
<feColorMatrix in="SourceAlpha" type="matrix" values="0 0 0 0 0 0 0 0 0 0 0 0 0 0 0 0 0 0 127 0"/>
<feOffset dy="10"/>
<feGaussianBlur stdDeviation="10"/>
<feColorMatrix type="matrix" values="0 0 0 0 0.0313726 0 0 0 0 0.0666667 0 0 0 0 0.27451 0 0 0 0.1 0"/>
<feBlend mode="normal" in2="BackgroundImageFix" result="effect1_dropShadow"/>
<feBlend mode="normal" in="SourceGraphic" in2="effect1_dropShadow" result="shape"/>
</filter>
<linearGradient id="paint0_linear" x1="1020.85" y1="587.288" x2="1204.92" y2="428.117" gradientUnits="userSpaceOnUse">
<stop stop-color="white"/>
<stop offset="1" stop-color="white" stop-opacity="0"/>
</linearGradient>
<linearGradient id="paint1_linear" x1="1082.68" y1="281.906" x2="1383.88" y2="-145.514" gradientUnits="userSpaceOnUse">
<stop stop-color="white"/>
<stop offset="1" stop-color="white" stop-opacity="0"/>
</linearGradient>
<linearGradient id="paint2_linear" x1="923.208" y1="-86.8586" x2="923.208" y2="446.128" gradientUnits="userSpaceOnUse">
<stop stop-color="white"/>
<stop offset="1" stop-color="white" stop-opacity="0"/>
</linearGradient>
<linearGradient id="paint3_linear" x1="403.318" y1="383.079" x2="-19.8748" y2="-139.509" gradientUnits="userSpaceOnUse">
<stop stop-color="white"/>
<stop offset="1" stop-color="white" stop-opacity="0"/>
</linearGradient>
<linearGradient id="paint4_linear" x1="605.807" y1="321" x2="605.807" y2="564.342" gradientUnits="userSpaceOnUse">
<stop stop-color="white"/>
<stop offset="1" stop-color="white" stop-opacity="0"/>
</linearGradient>
<linearGradient id="paint5_linear" x1="19.471" y1="367.385" x2="315.861" y2="-59.6485" gradientUnits="userSpaceOnUse">
<stop stop-color="white"/>
<stop offset="1" stop-color="white" stop-opacity="0"/>
</linearGradient>
<linearGradient id="paint6_linear" x1="161.653" y1="95.6076" x2="360.588" y2="-40.7424" gradientUnits="userSpaceOnUse">
<stop stop-color="white"/>
<stop offset="1" stop-color="white" stop-opacity="0"/>
</linearGradient>
<linearGradient id="paint7_linear" x1="1138.76" y1="111.609" x2="674" y2="-152" gradientUnits="userSpaceOnUse">
<stop stop-color="white"/>
<stop offset="1" stop-color="white" stop-opacity="0"/>
</linearGradient>
</defs>
</svg>
