<svg width="102" height="40" viewBox="0 0 102 40" version="1.1" xmlns="http://www.w3.org/2000/svg" xmlns:xlink="http://www.w3.org/1999/xlink">
<g id="Canvas" fill="none">
<g id="Logo / On Dark">
<g id="Text">
<path id="a" fill-rule="evenodd" clip-rule="evenodd" d="M 6.14288 5.51416L 5.0985 5.54947C 4.31381 5.57322 3.72975 5.71478 3.34631 5.97447C 2.96256 6.23416 2.771 6.62916 2.771 7.16041C 2.771 7.92135 3.20756 8.30198 4.08069 8.30198C 4.706 8.30198 5.20631 8.12198 5.58069 7.76197C 5.95538 7.40229 6.14288 6.92447 6.14288 6.32822L 6.14288 5.51416ZM 6.93845 10.0981L 6.41627 8.75283L 6.34533 8.75283C 5.89095 9.32534 5.42345 9.7219 4.94251 9.94315C 4.46189 10.1644 3.83501 10.275 3.0622 10.275C 2.11188 10.275 1.36438 10.0038 0.81844 9.46096C 0.272813 8.91815 0 8.14533 0 7.1422C 0 6.0922 0.367188 5.31783 1.10157 4.81907C 1.83657 4.32064 2.94407 4.0447 4.42501 3.99157L 6.14189 3.93845L 6.14189 3.5047C 6.14189 2.50188 5.62845 2.00032 4.60189 2.00032C 3.81126 2.00032 2.88188 2.23907 1.81407 2.71719L 0.920315 0.894065C 2.05907 0.298126 3.32188 0 4.70814 0C 6.03564 0 7.05345 0.289376 7.76158 0.867502C 8.4694 1.44563 8.82346 2.32469 8.82346 3.5047L 8.82346 10.0981L 6.93845 10.0981Z" transform="translate(92.9392 16.6989)" fill="white"/>
<path id="m" fill-rule="evenodd" clip-rule="evenodd" d="M 8.85908 10.0803L 6.1597 10.0803L 6.1597 4.30126C 6.1597 3.58751 6.04002 3.05188 5.80158 2.69501C 5.5622 2.33813 5.18626 2.15938 4.67282 2.15938C 3.98282 2.15938 3.48126 2.41313 3.16845 2.92063C 2.85563 3.42813 2.69938 4.26282 2.69938 5.42533L 2.69938 10.0803L 0 10.0803L 0 0.185938L 2.06219 0.185938L 2.42501 1.45157L 2.57563 1.45157C 2.84094 0.99719 3.2247 0.641564 3.72595 0.385001C 4.22751 0.128438 4.80282 0 5.45189 0C 6.93283 0 7.93564 0.484064 8.46096 1.45157L 8.69971 1.45157C 8.96533 0.991252 9.35627 0.634377 9.87252 0.380626C 10.3888 0.126875 10.9713 0 11.6203 0C 12.7413 0 13.5897 0.287813 14.1647 0.862815C 14.74 1.43813 15.0275 2.36001 15.0275 3.62845L 15.0275 10.0803L 12.3194 10.0803L 12.3194 4.30126C 12.3194 3.58751 12.1997 3.05188 11.9613 2.69501C 11.7219 2.33813 11.346 2.15938 10.8325 2.15938C 10.1719 2.15938 9.67784 2.39563 9.35002 2.86751C 9.02283 3.3397 8.85908 4.08876 8.85908 5.11533L 8.85908 10.0803Z" transform="translate(76.1985 16.7168)" fill="white"/>
<path id="s" fill-rule="evenodd" clip-rule="evenodd" d="M 7.50502 7.14189C 7.50502 8.1569 7.15252 8.92971 6.4472 9.46065C 5.7422 9.99159 4.68751 10.2572 3.28345 10.2572C 2.56344 10.2572 1.95032 10.2085 1.44282 10.111C 0.935315 10.0138 0.460314 9.87065 0.0178125 9.6819L 0.0178125 7.45158C 0.519376 7.68783 1.08407 7.88533 1.71282 8.04471C 2.34094 8.20377 2.89407 8.28346 3.37188 8.28346C 4.35126 8.28346 4.84126 8.00033 4.84126 7.43408C 4.84126 7.22158 4.77626 7.04908 4.64657 6.91627C 4.51657 6.78345 4.29251 6.63314 3.97376 6.4647C 3.65532 6.29658 3.23032 6.10064 2.69938 5.87626C 1.93844 5.55783 1.37907 5.26283 1.0225 4.99126C 0.665314 4.72001 0.405626 4.40876 0.243751 4.05751C 0.0812502 3.70657 0 3.27438 0 2.76094C 0 1.88188 0.340626 1.20219 1.0225 0.721252C 1.70375 0.240313 2.66969 0 3.92063 0C 5.11251 0 6.27189 0.259688 7.39877 0.778752L 6.5847 2.72563C 6.08908 2.51313 5.62564 2.33938 5.19501 2.20344C 4.76439 2.06782 4.3247 2.00001 3.87657 2.00001C 3.08001 2.00001 2.68157 2.21532 2.68157 2.64594C 2.68157 2.88813 2.81032 3.09751 3.06657 3.27438C 3.32345 3.45126 3.88532 3.71407 4.75251 4.0622C 5.52564 4.37501 6.0922 4.66689 6.45189 4.93814C 6.81158 5.2097 7.0772 5.5222 7.24846 5.87626C 7.41971 6.23033 7.50502 6.6522 7.50502 7.14189" transform="translate(66.8589 16.7175)" fill="white"/>
<path id="i" fill-rule="evenodd" clip-rule="evenodd" d="M 0.11499 13.7706L 2.81437 13.7706L 2.81437 3.87622L 0.11499 3.87622L 0.11499 13.7706ZM 0 1.31844C 0 0.439376 0.489689 0 1.46907 0C 2.44813 0 2.93813 0.439376 2.93813 1.31844C 2.93813 1.7375 2.81563 2.06344 2.57094 2.29657C 2.32594 2.52969 1.95875 2.64594 1.46907 2.64594C 0.489689 2.64594 0 2.20344 0 1.31844L 0 1.31844Z" transform="translate(62.0469 13.0266)" fill="white"/>
<path id="r" fill-rule="evenodd" clip-rule="evenodd" d="M 5.52251 0C 5.88845 0 6.1922 0.0265626 6.43408 0.0796877L 6.23064 2.61063C 6.0122 2.55188 5.74689 2.52219 5.43408 2.52219C 4.57251 2.52219 3.90157 2.74344 3.42032 3.18595C 2.93969 3.62845 2.69938 4.24814 2.69938 5.0447L 2.69938 10.0803L 0 10.0803L 0 0.185938L 2.04438 0.185938L 2.44282 1.84969L 2.57532 1.84969C 2.88219 1.29532 3.29657 0.848127 3.81907 0.508751C 4.34095 0.169688 4.90876 0 5.52251 0" transform="translate(54.2954 16.7168)" fill="white"/>
<path id="P" fill-rule="evenodd" clip-rule="evenodd" d="M 2.74268 6.08924L 3.64549 6.08924C 4.48924 6.08924 5.12018 5.92267 5.53925 5.58924C 5.95831 5.2558 6.16768 4.77048 6.16768 4.1333C 6.16768 3.49048 5.99206 3.01548 5.64112 2.7086C 5.28987 2.40173 4.73987 2.24829 3.99049 2.24829L 2.74268 2.24829L 2.74268 6.08924ZM 8.93846 4.03563C 8.93846 5.42814 8.50346 6.49283 7.63283 7.23033C 6.76283 7.96814 5.52533 8.33658 3.92063 8.33658L 2.74344 8.33658L 2.74344 12.9388L 0 12.9388L 0 0L 4.13282 0C 5.70251 0 6.89564 0.337813 7.71283 1.01313C 8.53002 1.68875 8.93846 2.69626 8.93846 4.03563L 8.93846 4.03563Z" transform="translate(43.6069 13.8583)" fill="white"/>
</g>
<path id="Symbol" fill-rule="evenodd" clip-rule="evenodd" d="M 32.9083 30.4747L 19.1514 1.26147C 18.8064 0.531155 18.0864 0.0486535 17.2704 0.0039659C 16.4333 -0.0447842 15.6832 0.358967 15.2601 1.04616L 0.340086 25.2118C -0.122103 25.965 -0.11304 26.8937 0.366336 27.6378L 7.65948 38.9353C 8.09417 39.6097 8.84729 40 9.63011 40C 9.85198 40 10.0751 39.9688 10.2945 39.9038L 31.4645 33.6425C 32.113 33.4506 32.6433 32.9919 32.9208 32.3837C 33.1974 31.7753 33.193 31.079 32.9083 30.4747ZM 29.8275 31.7276L 11.8653 37.0401C 11.3166 37.2026 10.7906 36.728 10.9059 36.1745L 17.3228 5.4435C 17.4428 4.86881 18.2372 4.77756 18.4878 5.30975L 30.3691 30.5398C 30.5932 31.0158 30.3375 31.577 29.8275 31.7276Z" fill="white"/>
</g>
</g>
</svg>
